<svg xmlns="http://www.w3.org/2000/svg" xmlns:xlink="http://www.w3.org/1999/xlink" width="34" height="35" viewBox="0 0 34 35">
  <defs>
    <clipPath id="clip-path">
      <rect id="Avatar" width="34" height="35" rx="17" transform="translate(25 315)" fill="#204289"/>
    </clipPath>
  </defs>
  <g id="Mask_Group_57" data-name="Mask Group 57" transform="translate(-25 -315)" clip-path="url(#clip-path)">
    <g id="tooth_1_" data-name="tooth (1)" transform="translate(30 320.5)">
      <g id="Group_317" data-name="Group 317">
        <path id="Path_1272" data-name="Path 1272" d="M24,6.464A6.577,6.577,0,0,0,17.46,0a7.527,7.527,0,0,0-4.817,2.128h0a4.486,4.486,0,0,1-2-.791A7.978,7.978,0,0,0,6.54,0,6.577,6.577,0,0,0,0,6.464a35.325,35.325,0,0,0,1.64,8.214c.7,2.355,2.148,6.573,3.908,8.359A2.766,2.766,0,0,0,7.5,24,1.705,1.705,0,0,0,8.784,23.4a3.179,3.179,0,0,0,.6-1.07,16.581,16.581,0,0,0,.589-2.575c.438-2.459.865-4.341,2.029-4.348s1.591,1.889,2.029,4.348a16.59,16.59,0,0,0,.589,2.575,3.178,3.178,0,0,0,.6,1.07A1.706,1.706,0,0,0,16.49,24h.027a2.774,2.774,0,0,0,1.936-.959c1.759-1.786,3.2-6,3.907-8.358A35.323,35.323,0,0,0,24,6.464Zm-3.436,7.677c-1.114,3.724-2.37,6.487-3.447,7.58a1.458,1.458,0,0,1-.538.387,2.537,2.537,0,0,1-.3-.753c-.15-.532-.271-1.208-.4-1.924a16.914,16.914,0,0,0-.935-3.666,3.167,3.167,0,0,0-2.917-2.227H11.98a3.167,3.167,0,0,0-2.917,2.227,16.909,16.909,0,0,0-.935,3.666c-.127.716-.248,1.392-.4,1.924a2.528,2.528,0,0,1-.306.754,1.443,1.443,0,0,1-.542-.388c-1.077-1.093-2.333-3.856-3.447-7.58A34.108,34.108,0,0,1,1.875,6.492,4.694,4.694,0,0,1,6.54,1.878,6.257,6.257,0,0,1,9.714,2.969c.386.22.777.443,1.186.626a4.681,4.681,0,0,1-2.862,1.25V6.719c2.125,0,3.654-1.31,5.132-2.577,1.359-1.164,2.642-2.264,4.287-2.264a4.708,4.708,0,0,1,4.668,4.614A34.114,34.114,0,0,1,20.564,14.141Z" fill="#204289"/>
      </g>
    </g>
  </g>
</svg>
