<svg xmlns="http://www.w3.org/2000/svg" xmlns:xlink="http://www.w3.org/1999/xlink" width="34" height="35" viewBox="0 0 34 35">
  <defs>
    <clipPath id="clip-path">
      <rect id="Avatar" width="34" height="35" rx="17" transform="translate(25 450)" fill="#204289"/>
    </clipPath>
  </defs>
  <g id="Mask_Group_50" data-name="Mask Group 50" transform="translate(-25 -450)" clip-path="url(#clip-path)">
    <g id="receipt_1_" data-name="receipt (1)" transform="translate(29.5 455)">
      <path id="Path_1261" data-name="Path 1261" d="M16.666,0H8.333A5.215,5.215,0,0,0,3.125,5.208v18.75a1.042,1.042,0,0,0,1.629.859l2.194-1.5,2.194,1.5a1.042,1.042,0,0,0,1.177,0l2.187-1.5,2.187,1.5a1.042,1.042,0,0,0,1.178,0l2.187-1.5,2.187,1.5a1.042,1.042,0,0,0,1.628-.858V5.208A5.215,5.215,0,0,0,16.666,0Zm3.125,21.979L18.646,21.2a1.042,1.042,0,0,0-1.179,0l-2.187,1.5-2.187-1.5a1.042,1.042,0,0,0-1.178,0l-2.187,1.5L7.538,21.2a1.042,1.042,0,0,0-1.176,0l-1.154.783V5.208A3.125,3.125,0,0,1,8.333,2.083h8.333a3.125,3.125,0,0,1,3.125,3.125Z" fill="#204289"/>
      <rect id="Rectangle_2580" data-name="Rectangle 2580" width="10.417" height="2.083" rx="1.042" transform="translate(7.292 8.333)" fill="#204289"/>
      <rect id="Rectangle_2581" data-name="Rectangle 2581" width="8.333" height="2.083" rx="1.042" transform="translate(7.292 12.5)" fill="#204289"/>
    </g>
  </g>
</svg>
