<svg xmlns="http://www.w3.org/2000/svg" xmlns:xlink="http://www.w3.org/1999/xlink" width="38" height="39" viewBox="0 0 38 39">
  <defs>
    <clipPath id="clip-path">
      <rect id="Avatar" width="38" height="39" rx="19" transform="translate(23 245)" fill="#204289"/>
    </clipPath>
  </defs>
  <g id="Mask_Group_53" data-name="Mask Group 53" transform="translate(-23 -245)" clip-path="url(#clip-path)">
    <g id="_01_align_center" data-name="01 align center" transform="translate(29.5 252)">
      <path id="Path_1268" data-name="Path 1268" d="M21.875,25H19.792V19.747a3.083,3.083,0,0,0-3.08-3.08H8.289a3.083,3.083,0,0,0-3.08,3.08V25H3.125V19.747a5.17,5.17,0,0,1,5.164-5.164h8.423a5.17,5.17,0,0,1,5.164,5.164Z" fill="#204289"/>
      <path id="Path_1269" data-name="Path 1269" d="M12.5,12.5a6.25,6.25,0,1,1,6.25-6.25A6.25,6.25,0,0,1,12.5,12.5Zm0-10.417A4.167,4.167,0,1,0,16.667,6.25,4.167,4.167,0,0,0,12.5,2.083Z" fill="#204289"/>
    </g>
  </g>
</svg>
