<svg xmlns="http://www.w3.org/2000/svg" xmlns:xlink="http://www.w3.org/1999/xlink" width="36" height="35" viewBox="0 0 36 35">
  <defs>
    <clipPath id="clip-path">
      <rect id="Avatar" width="36" height="35" rx="17.5" transform="translate(24 113)" fill="#204289"/>
    </clipPath>
  </defs>
  <g id="Mask_Group_49" data-name="Mask Group 49" transform="translate(-24 -113)" clip-path="url(#clip-path)">
    <g id="_03_dashboard_layout_grid" data-name="03 dashboard, layout, grid" transform="translate(28.908 117.409)">
      <path id="Path_1260" data-name="Path 1260" d="M8.727,12H4.364A3.273,3.273,0,0,1,1.091,8.727V4.364A3.273,3.273,0,0,1,4.364,1.091H8.727A3.273,3.273,0,0,1,12,4.364V8.727A3.273,3.273,0,0,1,8.727,12ZM4.364,3.273A1.091,1.091,0,0,0,3.273,4.364V8.727A1.091,1.091,0,0,0,4.364,9.818H8.727A1.091,1.091,0,0,0,9.818,8.727V4.364A1.091,1.091,0,0,0,8.727,3.273ZM21.818,12H17.455a3.273,3.273,0,0,1-3.273-3.273V4.364a3.273,3.273,0,0,1,3.273-3.273h4.364a3.273,3.273,0,0,1,3.273,3.273V8.727A3.273,3.273,0,0,1,21.818,12ZM17.455,3.273a1.091,1.091,0,0,0-1.091,1.091V8.727a1.091,1.091,0,0,0,1.091,1.091h4.364a1.091,1.091,0,0,0,1.091-1.091V4.364a1.091,1.091,0,0,0-1.091-1.091ZM8.727,25.091H4.364a3.273,3.273,0,0,1-3.273-3.273V17.455a3.273,3.273,0,0,1,3.273-3.273H8.727A3.273,3.273,0,0,1,12,17.455v4.364A3.273,3.273,0,0,1,8.727,25.091ZM4.364,16.364a1.091,1.091,0,0,0-1.091,1.091v4.364a1.091,1.091,0,0,0,1.091,1.091H8.727a1.091,1.091,0,0,0,1.091-1.091V17.455a1.091,1.091,0,0,0-1.091-1.091Zm17.455,8.727H17.455a3.273,3.273,0,0,1-3.273-3.273V17.455a3.273,3.273,0,0,1,3.273-3.273h4.364a3.273,3.273,0,0,1,3.273,3.273v4.364A3.273,3.273,0,0,1,21.818,25.091Zm-4.364-8.727a1.091,1.091,0,0,0-1.091,1.091v4.364a1.091,1.091,0,0,0,1.091,1.091h4.364a1.091,1.091,0,0,0,1.091-1.091V17.455a1.091,1.091,0,0,0-1.091-1.091Z" fill="#204289"/>
    </g>
  </g>
</svg>
