<svg xmlns="http://www.w3.org/2000/svg" xmlns:xlink="http://www.w3.org/1999/xlink" width="36" height="35" viewBox="0 0 36 35">
  <defs>
    <clipPath id="clip-path">
      <rect id="Avatar" width="36" height="35" rx="17.5" transform="translate(24 382)" fill="#204289"/>
    </clipPath>
  </defs>
  <g id="Mask_Group_56" data-name="Mask Group 56" transform="translate(-24 -382)" clip-path="url(#clip-path)">
    <g id="Solid" transform="translate(29.592 387.128)">
      <path id="Path_1270" data-name="Path 1270" d="M3.627,7.04A2.121,2.121,0,0,0,.775,6a.647.647,0,0,0-.146.089.646.646,0,0,0-.143.793L2.039,9.817a.612.612,0,0,0,.651.316.6.6,0,0,0,.233-.095,2.051,2.051,0,0,0,.7-3Z" fill="#204289"/>
      <path id="Path_1271" data-name="Path 1271" d="M23.992,19.052a51.577,51.577,0,0,0-4.676-3.627,3.781,3.781,0,0,0-.548-.322,8.1,8.1,0,0,0,2.756-5.8,7.589,7.589,0,0,0-2.457-5.667,8.51,8.51,0,0,0-6.421-2.155L12.275.766a.624.624,0,0,0-.367-.309.631.631,0,0,0-.59.117.646.646,0,0,0-.143.793L12.729,4.3a.612.612,0,0,0,1.085-.568l-.575-1.109A7.31,7.31,0,0,1,18.279,4.5,6.346,6.346,0,0,1,20.357,9.3a7.337,7.337,0,0,1-3.036,5.507l-.061,0c-.295-.016-.7-.042-1.162-.072V12.45h.845a.6.6,0,1,0,0-1.192H10.549a.6.6,0,1,0,0,1.192h3.334v2.136c-1.532-.105-2.933-.205-2.933-.205a1.065,1.065,0,0,1-.643-.253c-.831-.7-3.573-3.226-4.623-3.645a2.5,2.5,0,0,0-2.642.855.957.957,0,0,0-.149.2.638.638,0,0,0,.2.769l5.888,4.472a2.914,2.914,0,0,0,1.548.588c.582.045,1.4.1,2.276.163v5.33H7.759A1.786,1.786,0,0,0,6.1,23.98a.245.245,0,0,0,.227.336h11.5a.245.245,0,0,0,.227-.336A1.786,1.786,0,0,0,16.4,22.858h-.29V17.749l1.012.067a2.039,2.039,0,0,1,1.113.421L22.8,21.769a.619.619,0,0,0,.868-.11,1.453,1.453,0,0,0,.164-.277C24.194,20.657,24.837,19.975,23.992,19.052Z" fill="#204289"/>
    </g>
  </g>
</svg>
