<svg xmlns="http://www.w3.org/2000/svg" xmlns:xlink="http://www.w3.org/1999/xlink" width="32" height="32" viewBox="0 0 32 32">
  <defs>
    <clipPath id="clip-path">
      <rect id="Rectangle_2423" data-name="Rectangle 2423" width="32" height="32" transform="translate(0.08 0)" fill="#fff"/>
    </clipPath>
  </defs>
  <g id="Mask_Group_12" data-name="Mask Group 12" transform="translate(-0.08 0)" clip-path="url(#clip-path)">
    <g id="user" transform="translate(3.737 -0.35)">
      <path id="Path_1159" data-name="Path 1159" d="M26.175,16.35A8.175,8.175,0,1,0,18,8.175a8.175,8.175,0,0,0,8.175,8.175Zm0-13.625a5.45,5.45,0,1,1-5.45,5.45A5.45,5.45,0,0,1,26.175,2.725Z" transform="translate(-13.912)" fill="#fff"/>
      <path id="Path_1160" data-name="Path 1160" d="M21.263,42A12.276,12.276,0,0,0,9,54.263a1.363,1.363,0,1,0,2.725,0,9.538,9.538,0,1,1,19.075,0,1.363,1.363,0,0,0,2.725,0A12.276,12.276,0,0,0,21.263,42Z" transform="translate(-9 -22.925)" fill="#fff"/>
    </g>
  </g>
</svg>
