<svg xmlns="http://www.w3.org/2000/svg" xmlns:xlink="http://www.w3.org/1999/xlink" width="32" height="32" viewBox="0 0 32 32">
  <defs>
    <clipPath id="clip-path">
      <rect id="Rectangle_2424" data-name="Rectangle 2424" width="32" height="32" transform="translate(-0.161)" fill="#fff"/>
    </clipPath>
  </defs>
  <g id="Mask_Group_13" data-name="Mask Group 13" transform="translate(0.161)" clip-path="url(#clip-path)">
    <path id="doctor" d="M28,8.333H21.333V3H10.667V8.333H4a4,4,0,0,0-4,4v20H32v-20A4,4,0,0,0,28,8.333ZM13.333,5.667h5.333V8.333H13.333Zm16,24H2.667V12.333A1.333,1.333,0,0,1,4,11H28a1.333,1.333,0,0,1,1.333,1.333ZM17.333,19h4v2.667h-4v4H14.667v-4h-4V19h4V15h2.667Z" transform="translate(0 -1.667)" fill="#fff"/>
  </g>
</svg>
