<svg id="camera" xmlns="http://www.w3.org/2000/svg" width="16.137" height="16.137" viewBox="0 0 16.137 16.137">
  <path id="Path_1277" data-name="Path 1277" d="M12.775,2.69h-.342L10.965.785A2.033,2.033,0,0,0,9.368,0H6.77a2.033,2.033,0,0,0-1.6.785L3.7,2.69H3.362A3.366,3.366,0,0,0,0,6.052v6.724a3.366,3.366,0,0,0,3.362,3.362h9.414a3.366,3.366,0,0,0,3.362-3.362V6.052A3.366,3.366,0,0,0,12.775,2.69ZM6.237,1.607a.676.676,0,0,1,.533-.262h2.6a.678.678,0,0,1,.533.262l.835,1.083H5.4Zm8.556,11.168a2.017,2.017,0,0,1-2.017,2.017H3.362a2.017,2.017,0,0,1-2.017-2.017V6.052A2.017,2.017,0,0,1,3.362,4.034h9.414a2.017,2.017,0,0,1,2.017,2.017Z" fill="#fff"/>
  <path id="Path_1278" data-name="Path 1278" d="M10.034,8a4.034,4.034,0,1,0,4.034,4.034A4.034,4.034,0,0,0,10.034,8Zm0,6.724a2.69,2.69,0,1,1,2.69-2.69A2.69,2.69,0,0,1,10.034,14.724Z" transform="translate(-1.966 -2.621)" fill="#fff"/>
</svg>
