<svg xmlns="http://www.w3.org/2000/svg" xmlns:xlink="http://www.w3.org/1999/xlink" width="29" height="29" viewBox="0 0 29 29">
  <defs>
    <clipPath id="clip-path">
      <rect id="Rectangle_2431" data-name="Rectangle 2431" width="29" height="29" transform="translate(0.438)" fill="#fff"/>
    </clipPath>
  </defs>
  <g id="Mask_Group_15" data-name="Mask Group 15" transform="translate(-0.438)" clip-path="url(#clip-path)">
    <g id="patient" transform="translate(2.201 2.201)">
      <g id="Group_274" data-name="Group 274">
        <g id="Group_272" data-name="Group 272" transform="translate(3.979)">
          <path id="Path_1161" data-name="Path 1161" d="M13.641,9.948a4.974,4.974,0,1,1,4.974-4.974A4.98,4.98,0,0,1,13.641,9.948Zm0-8.953A3.979,3.979,0,1,0,17.62,4.974,3.983,3.983,0,0,0,13.641.995Z" transform="translate(-8.667)" fill="#fff"/>
        </g>
        <g id="Group_273" data-name="Group 273" transform="translate(0 11.938)">
          <path id="Path_1162" data-name="Path 1162" d="M6.466,34.953H.5a.5.5,0,0,1-.5-.5V30.477A4.482,4.482,0,0,1,4.477,26H13.43a4.457,4.457,0,0,1,3.226,1.379.5.5,0,1,1-.722.684,3.46,3.46,0,0,0-2.5-1.068H4.477A3.486,3.486,0,0,0,.995,30.477v3.482H6.466a.5.5,0,1,1,0,.995Z" transform="translate(0 -26)" fill="#fff"/>
        </g>
      </g>
      <g id="Group_275" data-name="Group 275" transform="translate(8.953 15.917)">
        <path id="Path_1163" data-name="Path 1163" d="M24.971,42.625a.5.5,0,0,1-.445-.275l-1.852-3.7H20a.5.5,0,1,1,0-.995h2.984a.5.5,0,0,1,.445.275l1.51,3.02L27.5,34.968a.5.5,0,0,1,.443-.3.523.523,0,0,1,.46.275l2.847,5.694h2.677a.5.5,0,0,1,0,.995H30.94a.5.5,0,0,1-.445-.275l-2.5-5.01-2.562,5.978a.5.5,0,0,1-.443.3h-.015Z" transform="translate(-19.5 -34.667)" fill="#fff"/>
      </g>
    </g>
  </g>
</svg>
