<svg xmlns="http://www.w3.org/2000/svg" xmlns:xlink="http://www.w3.org/1999/xlink" width="34" height="35" viewBox="0 0 34 35">
  <defs>
    <clipPath id="clip-path">
      <rect id="Avatar" width="34" height="35" rx="17" transform="translate(25 518)" fill="#fff"/>
    </clipPath>
  </defs>
  <g id="Mask_Group_54" data-name="Mask Group 54" transform="translate(-25 -518)" clip-path="url(#clip-path)">
    <path id="file-invoice" d="M15.8,15.093v.915a1.373,1.373,0,0,1-1.372,1.372h-6.4a1.373,1.373,0,0,1-1.372-1.372v-.915a1.373,1.373,0,0,1,1.372-1.372h6.4A1.373,1.373,0,0,1,15.8,15.093Zm-7.775-3.2H9.858a1.372,1.372,0,1,0,0-2.744H8.029a1.372,1.372,0,0,0,0,2.744Zm0-4.574H9.858a1.372,1.372,0,1,0,0-2.744H8.029a1.372,1.372,0,0,0,0,2.744Zm12.349.144v9.461a5.036,5.036,0,0,1-5.031,5.031H7.114a5.036,5.036,0,0,1-5.031-5.031V5.031A5.036,5.036,0,0,1,7.114,0h5.8a5,5,0,0,1,3.557,1.474L18.9,3.9A5,5,0,0,1,20.378,7.461Zm-2.744,9.461V8.232H13.975A1.829,1.829,0,0,1,12.145,6.4V2.744H7.114A2.29,2.29,0,0,0,4.827,5.031V16.922a2.29,2.29,0,0,0,2.287,2.287h8.232A2.29,2.29,0,0,0,17.634,16.922Z" transform="translate(30.769 524.523)" fill="#fff"/>
  </g>
</svg>
