<svg xmlns="http://www.w3.org/2000/svg" xmlns:xlink="http://www.w3.org/1999/xlink" width="30" height="30" viewBox="0 0 30 30">
  <defs>
    <clipPath id="clip-path">
      <rect id="Rectangle_2938" data-name="Rectangle 2938" width="30" height="30" transform="translate(1792.5 368)" fill="#204289"/>
    </clipPath>
  </defs>
  <g id="Mask_Group_155" data-name="Mask Group 155" transform="translate(-1792.5 -368)" clip-path="url(#clip-path)">
    <path id="inbox-in" d="M17.33,9.9H14.854a1.652,1.652,0,0,0-1.65,1.65,1.652,1.652,0,0,1-1.65,1.65h-3.3a1.652,1.652,0,0,1-1.65-1.65A1.652,1.652,0,0,0,4.951,9.9H2.476A2.479,2.479,0,0,0,0,12.379v3.3a4.131,4.131,0,0,0,4.126,4.126H15.679a4.131,4.131,0,0,0,4.126-4.126v-3.3A2.479,2.479,0,0,0,17.33,9.9Zm.825,5.777a2.479,2.479,0,0,1-2.476,2.476H4.126A2.479,2.479,0,0,1,1.65,15.679v-3.3a.826.826,0,0,1,.825-.825l2.476,0v0a3.3,3.3,0,0,0,3.3,3.3h3.3a3.3,3.3,0,0,0,3.3-3.3H17.33a.826.826,0,0,1,.825.825ZM6.018,5.877A.825.825,0,0,1,7.185,4.71L9.078,6.6V.825a.825.825,0,0,1,1.65,0V6.6L12.62,4.71a.825.825,0,0,1,1.167,1.167L11.07,8.594a1.645,1.645,0,0,1-1.159.482l-.007,0-.007,0a1.645,1.645,0,0,1-1.159-.482L6.018,5.877Z" transform="translate(1797.597 373.097)" fill="#204289"/>
  </g>
</svg>
