<svg xmlns="http://www.w3.org/2000/svg" width="79.392" height="76.007" viewBox="0 0 79.392 76.007">
  <g id="verified_1_" data-name="verified (1)" transform="translate(0 0)">
    <g id="Layer_2" data-name="Layer 2" transform="translate(0 0)">
      <path id="Path_1275" data-name="Path 1275" d="M74.855,32.351a12.761,12.761,0,0,1-3.189-2.628,12.47,12.47,0,0,1,1.023-4.212c1.074-3.031,2.289-6.464.34-9.133s-5.629-2.584-8.859-2.51A12.632,12.632,0,0,1,59.9,13.58a12.436,12.436,0,0,1-1.569-3.924c-.915-3.119-1.96-6.645-5.168-7.7-3.093-1-5.958,1.2-8.49,3.123a12.126,12.126,0,0,1-3.736,2.329,12.126,12.126,0,0,1-3.776-2.329C34.64,3.162,31.786.947,28.678,1.959c-3.2,1.041-4.245,4.577-5.168,7.7a12.617,12.617,0,0,1-1.554,3.917,12.854,12.854,0,0,1-4.271.3c-3.241-.089-6.892-.185-8.859,2.51s-.738,6.1.34,9.129A12.315,12.315,0,0,1,10.2,29.719a12.732,12.732,0,0,1-3.186,2.632c-2.7,1.846-5.77,3.946-5.77,7.357s3.068,5.5,5.77,7.357A12.732,12.732,0,0,1,10.2,49.693a12.311,12.311,0,0,1-1.008,4.216c-1.071,3.027-2.281,6.46-.336,9.129s5.615,2.584,8.859,2.51a12.647,12.647,0,0,1,4.267.288,12.551,12.551,0,0,1,1.565,3.924c.915,3.119,1.96,6.645,5.168,7.7a5.257,5.257,0,0,0,1.591.251,12.485,12.485,0,0,0,6.9-3.374,12.127,12.127,0,0,1,3.736-2.329,12.126,12.126,0,0,1,3.776,2.329c2.529,1.931,5.393,4.134,8.49,3.119,3.2-1.041,4.245-4.577,5.168-7.693a12.507,12.507,0,0,1,1.565-3.92,12.643,12.643,0,0,1,4.256-.3c3.241.078,6.892.185,8.859-2.51s.738-6.1-.34-9.133a12.477,12.477,0,0,1-1.037-4.2,12.684,12.684,0,0,1,3.189-2.632c2.7-1.846,5.77-3.95,5.77-7.361S77.56,34.2,74.855,32.351Z" transform="translate(-1.247 -1.705)" fill="#0a8b19"/>
      <path id="Path_1276" data-name="Path 1276" d="M18.351,26.862a2.75,2.75,0,0,1-1.956-.812L9.012,18.667a2.769,2.769,0,0,1,3.913-3.913l5.685,5.685L31.456,10.8a2.769,2.769,0,1,1,3.322,4.43L20.012,26.308a2.772,2.772,0,0,1-1.661.554Z" transform="translate(17.652 21.292)" fill="#fff"/>
    </g>
  </g>
</svg>
